# This file uses centimeters as units for non-parametric coordinates.

mtllib muur.mtl
g default
v 0.349607 0.003515 -1.075980
v -0.915283 0.003515 -0.664992
v -0.915283 0.003515 0.664992
v 0.349607 0.003515 1.075979
v 1.131352 0.003515 0.000000
v 0.349607 7.496835 -1.075980
v -0.915283 8.169713 -0.664992
v -0.915283 8.169713 0.664992
v 0.349607 8.169713 1.075979
v 1.131352 7.496835 0.000000
v 0.000000 0.003515 0.000000
v 0.000000 7.862898 0.000000
vt 0.000000 0.000000
vt 0.112665 0.000000
vt 0.112665 0.691770
vt 0.000000 0.691770
vt 0.150095 0.402440
vt 0.353654 0.336299
vt 0.297392 0.509457
vt 0.479461 0.509457
vt 0.150095 0.616474
vt 0.353654 0.682615
vt 0.318162 0.347640
vt 0.112958 0.280123
vt 0.261446 0.173834
vt 0.113936 0.066192
vt 0.444269 0.174826
vt 0.317372 0.000000
vt 0.826246 0.705868
vt 0.714113 0.694931
vt 0.781268 0.006428
vt 0.887867 0.074096
vt 0.938379 0.716805
vt 1.000000 0.085034
vt 0.429397 0.023561
vt 0.541444 0.011781
vt 0.613777 0.699758
vt 0.501730 0.711539
vt 0.653491 -0.000000
vt 0.719864 0.631290
vn -0.309017 0.000000 -0.951057
vn -0.309017 0.000000 -0.951057
vn -0.309017 0.000000 -0.951057
vn -0.309017 0.000000 -0.951057
vn -1.000000 0.000000 -0.000000
vn -1.000000 0.000000 -0.000000
vn -1.000000 0.000000 -0.000000
vn -1.000000 0.000000 -0.000000
vn -0.309017 0.000000 0.951056
vn -0.309017 0.000000 0.951056
vn -0.309017 0.000000 0.951056
vn -0.309017 0.000000 0.951056
vn 0.809017 0.000000 0.587785
vn 0.809017 0.000000 0.587785
vn 0.809017 0.000000 0.587785
vn 0.809017 0.000000 0.587785
vn 0.809017 0.000000 -0.587785
vn 0.809017 0.000000 -0.587785
vn 0.809017 0.000000 -0.587785
vn 0.809017 0.000000 -0.587785
vn 0.000000 -1.000000 0.000000
vn 0.000000 -1.000000 0.000000
vn 0.000000 -1.000000 0.000000
vn 0.000000 -1.000000 0.000000
vn 0.000000 -1.000000 0.000000
vn 0.000000 -1.000000 0.000000
vn 0.362106 0.912017 -0.192625
vn 0.372381 0.924069 -0.086189
vn 0.290923 0.933106 -0.211368
vn 0.211752 0.965139 -0.153847
vn 0.197042 0.924069 -0.327521
vn 0.295094 0.912017 -0.284858
s off
g pCylinder1
usemtl texturedFacets
f 1/17/1 2/18/2 7/19/3 6/20/4
f 2/1/5 3/2/6 8/3/7 7/4/8
f 3/23/9 4/24/10 9/25/11 8/26/12
f 4/24/13 5/27/14 10/28/15 9/25/16
f 5/21/17 1/17/18 6/20/19 10/22/20
s 1
f 2/5/21 1/6/22 11/7/23
f 3/9/24 2/5/21 11/7/23
f 4/10/25 3/9/24 11/7/23
f 5/8/26 4/10/25 11/7/23
f 1/6/22 5/8/26 11/7/23
s 2
f 6/11/27 7/12/28 12/13/29
f 7/12/28 8/14/30 12/13/29
f 8/14/30 9/16/31 12/13/29
f 9/16/31 10/15/32 12/13/29
f 10/15/32 6/11/27 12/13/29
